HIERARCHY
ROOT Hips
{
	OFFSET -3.958830 18.904000 13.208200
	CHANNELS 6 Xposition Yposition Zposition Zrotation Yrotation Xrotation 
	JOINT LHipJoint
	{
		OFFSET 0.000000 0.000000 0.000000
		CHANNELS 3 Zrotation Yrotation Xrotation
		JOINT LeftUpLeg
		{
			OFFSET 1.800000 -1.400000 0.085000
			CHANNELS 3 Zrotation Yrotation Xrotation
			JOINT LeftLeg
			{
				OFFSET 2.215000 -6.000000 0.000000
				CHANNELS 3 Zrotation Yrotation Xrotation
				JOINT LeftFoot
				{
					OFFSET 2.500000 -6.900000 0.000000
					CHANNELS 3 Zrotation Yrotation Xrotation
					JOINT LeftToeBase
					{
						OFFSET 0.200000 -0.500000 1.950000
						CHANNELS 3 Zrotation Yrotation Xrotation
						End Site
						{
							OFFSET 0.000000 0.000000 0.000000
						}
					}
				}
			}
		}
	}
	JOINT RHipJoint
	{
		OFFSET 0.000000 0.000000 0.000000
		CHANNELS 3 Zrotation Yrotation Xrotation
		JOINT RightUpLeg
		{
			OFFSET -1.800000 -1.400000 0.085000
			CHANNELS 3 Zrotation Yrotation Xrotation
			JOINT RightLeg
			{
				OFFSET -2.215000 -6.000000 0.000000
				CHANNELS 3 Zrotation Yrotation Xrotation
				JOINT RightFoot
				{
					OFFSET -2.500000 -6.900000 0.000000
					CHANNELS 3 Zrotation Yrotation Xrotation
					JOINT RightToeBase
					{
						OFFSET -0.200000 -0.500000 1.950000
						CHANNELS 3 Zrotation Yrotation Xrotation
						End Site
						{
							OFFSET 0.000000 0.000000 0.000000
						}
					}
				}
			}
		}
	}
	JOINT LowerBack
	{
		OFFSET 0.000000 0.000000 0.000000
		CHANNELS 3 Zrotation Yrotation Xrotation
		JOINT Spine
		{
			OFFSET -0.087000 1.940000 -0.288900
			CHANNELS 3 Zrotation Yrotation Xrotation
			JOINT Spine1
			{
				OFFSET 0.000000 1.950000 0.060000
				CHANNELS 3 Zrotation Yrotation Xrotation
				JOINT Neck
				{
					OFFSET 0.000000 0.000000 0.000000
					CHANNELS 3 Zrotation Yrotation Xrotation
					JOINT Neck1
					{
						OFFSET 0.000000 1.600000 0.340000
						CHANNELS 3 Zrotation Yrotation Xrotation
						JOINT Head
						{
							OFFSET 0.000000 1.667000 -0.240000
							CHANNELS 3 Zrotation Yrotation Xrotation
							End Site
							{
								OFFSET 0.000000 0.000000 0.000000
							}
						}
					}
				}
				JOINT LeftShoulder
				{
					OFFSET 0.000000 0.000000 0.000000
					CHANNELS 3 Zrotation Yrotation Xrotation
					JOINT LeftArm
					{
						OFFSET 2.700000 1.550000 -0.730000
						CHANNELS 3 Zrotation Yrotation Xrotation
						JOINT LeftForeArm
						{
							OFFSET 5.450000 0.000000 0.000000
							CHANNELS 3 Zrotation Yrotation Xrotation
							JOINT LeftHand
							{
								OFFSET 3.450000 0.000000 0.000000
								CHANNELS 3 Zrotation Yrotation Xrotation
								JOINT LeftHandIndex1
								{
									OFFSET 0.750000 0.000000 0.000000
									CHANNELS 3 Zrotation Yrotation Xrotation
									End Site
									{
										OFFSET 0.000000 0.000000 0.000000
									}
								}
							}
						}
					}
				}
				JOINT RightShoulder
				{
					OFFSET 0.000000 0.000000 0.000000
					CHANNELS 3 Zrotation Yrotation Xrotation
					JOINT RightArm
					{
						OFFSET -2.700000 1.550000 -0.730000
						CHANNELS 3 Zrotation Yrotation Xrotation
						JOINT RightForeArm
						{
							OFFSET -5.450000 0.000000 0.000000
							CHANNELS 3 Zrotation Yrotation Xrotation
							JOINT RightHand
							{
								OFFSET -3.450000 0.000000 0.000000
								CHANNELS 3 Zrotation Yrotation Xrotation
								JOINT RightHandIndex1
								{
									OFFSET -0.750000 0.000000 0.000000
									CHANNELS 3 Zrotation Yrotation Xrotation
									End Site
									{
										OFFSET 0.000000 0.000000 0.000000
									}
								}
							}
						}
					}
				}
			}
		}
	}
}
MOTION
Frames: 8
Frame Time: 0.016667
0.176120 17.969430 -1.803780 -6.148113 2.248382 -2.380391 -14.973318 12.697518 2.124460 2.554736 -0.416145 -5.521577 -3.452115 5.116032 11.757148 -0.927327 4.403747 3.229253 -0.323200 -0.665860 -0.308680 18.783684 -8.894298 5.320988 -2.667928 12.194897 -51.815821 4.552367 -14.962657 65.795926 -1.417055 -10.609193 0.882750 -0.190800 0.720410 0.029910 -4.604151 -2.401809 -8.446407 18.044223 -6.511395 15.035429 -7.768711 -3.271160 2.648276 2.882709 -2.231671 -8.234046 -8.177976 5.012573 47.027882 -3.522980 4.653180 1.132390 -25.972591 -9.432297 2.033572 -44.743392 -10.520442 -3.526544 -39.752776 -54.299207 16.505059 -4.132939 2.901009 0.624450 0.376590 -0.410170 -0.025780 19.547173 8.512385 4.516212 58.909445 1.719620 -7.486795 12.786045 13.777129 -0.038382 2.001523 -0.843539 -0.665180 0.543820 0.656270 -0.282920 
0.173720 17.970460 -1.800270 -6.216389 2.322613 -2.414336 -14.969448 12.714222 2.125911 2.605799 -0.409860 -5.482083 -3.343753 5.096182 11.767583 -0.924156 4.393211 3.232315 -0.321010 -0.657900 -0.311330 18.782823 -8.912742 5.302578 -2.546040 12.109341 -51.645703 4.642603 -14.852279 65.197762 -1.391270 -10.494587 0.919600 -0.187990 0.716950 0.025480 -4.609511 -2.403804 -8.434620 18.153956 -6.604713 15.053017 -7.813841 -3.343244 2.688469 2.891732 -2.258629 -8.282876 -8.256582 5.060391 47.153707 -3.513230 4.681580 1.115650 -25.976863 -9.522104 2.097166 -44.781401 -10.516705 -3.570131 -39.788385 -54.578409 16.607219 -4.126682 2.901684 0.622750 0.374310 -0.407660 -0.022820 19.532244 8.599947 4.550439 58.927439 1.736123 -7.528601 12.805784 13.956040 -0.030514 2.000150 -0.843701 -0.663000 0.545380 0.652320 -0.280860 
0.169180 17.966150 -1.790960 -6.249288 2.423557 -2.310426 -14.964704 12.732381 2.125138 2.571654 -0.409758 -5.551387 -3.141750 5.058209 11.861393 -0.914118 4.364056 3.244180 -0.325260 -0.651530 -0.321980 18.782747 -8.941907 5.274829 -2.402367 11.951299 -51.494983 4.711392 -14.582614 64.116699 -1.332226 -10.284443 0.987555 -0.189060 0.719420 0.018000 -4.618505 -2.393723 -8.406138 18.260070 -6.674972 14.880730 -7.865441 -3.428779 2.774621 2.898641 -2.260547 -8.295841 -8.240554 5.026900 46.959889 -3.600930 4.751200 1.416670 -25.868089 -9.529319 2.152017 -44.921730 -10.597772 -3.517539 -40.032763 -54.872460 16.857157 -4.126705 2.910941 0.605400 0.380060 -0.415380 -0.020200 19.403906 8.570939 4.560267 59.037314 1.711470 -7.622096 12.895858 14.346203 -0.024171 2.000222 -0.853466 -0.656960 0.541530 0.647980 -0.273920 
0.163150 17.955990 -1.777110 -6.177039 2.560884 -2.142234 -14.964070 12.769255 2.135175 2.415339 -0.421849 -5.730642 -2.882177 5.011288 12.089617 -0.909545 4.341733 3.257565 -0.332580 -0.652860 -0.331460 18.773621 -8.994496 5.217458 -2.216790 11.618507 -51.191787 4.598331 -14.067317 62.509647 -1.241680 -9.950155 1.088405 -0.191450 0.729970 0.016780 -4.609707 -2.395744 -8.363849 18.177746 -6.712442 14.678151 -7.830003 -3.527010 2.811296 2.886151 -2.236244 -8.216336 -8.125717 4.928557 46.456361 -3.771130 4.831380 1.632550 -25.810237 -9.394076 2.131155 -45.085248 -10.742702 -3.376284 -40.473544 -55.151355 17.225244 -4.136013 2.918395 0.589730 0.390640 -0.423410 -0.015750 19.374724 8.371139 4.483976 59.048230 1.671350 -7.633369 12.983294 14.382581 -0.030538 2.002257 -0.860280 -0.655260 0.541560 0.646510 -0.267020 
0.155250 17.938970 -1.759450 -6.023866 2.737342 -1.923354 -14.967878 12.825106 2.156190 2.182143 -0.443781 -6.000111 -2.604936 4.964500 12.425608 -0.911279 4.323118 3.267988 -0.339950 -0.655430 -0.343290 18.755481 -9.065443 5.131079 -1.978393 11.145545 -50.711384 4.333235 -13.349314 60.416860 -1.121328 -9.506026 1.223676 -0.191740 0.742530 0.017140 -4.582742 -2.417533 -8.308526 17.919233 -6.739836 14.442446 -7.719428 -3.661884 2.816139 2.852566 -2.209432 -8.077988 -7.976919 4.847532 45.728483 -3.935880 4.924160 1.805010 -25.769735 -9.155917 2.052597 -45.284073 -10.959053 -3.179556 -40.710383 -55.328762 17.467367 -4.148679 2.926390 0.574370 0.404560 -0.434780 -0.011500 19.416355 8.048998 4.357367 59.024460 1.616912 -7.649862 13.090892 14.480885 -0.033911 1.999907 -0.868976 -0.655830 0.539980 0.646940 -0.261740 
0.144510 17.915860 -1.736500 -5.739953 2.807490 -1.614611 -14.977327 12.894639 2.188023 1.849657 -0.467601 -6.344241 -2.327279 4.923847 12.836119 -0.905551 4.309293 3.281929 -0.357700 -0.667550 -0.366420 18.728731 -9.148476 5.022728 -1.687181 10.601381 -50.076779 3.899522 -12.412586 57.852974 -0.968162 -8.951073 1.400314 -0.195940 0.767870 0.014820 -4.535227 -2.455428 -8.240699 17.406338 -6.661121 14.109899 -7.461112 -3.756278 2.789685 2.749431 -2.210919 -7.894600 -7.875805 4.784610 44.759644 -3.989610 4.958290 2.268100 -25.720089 -8.780249 1.918148 -45.586354 -11.260951 -2.875876 -40.874106 -55.391323 17.662131 -4.170884 2.932806 0.547480 0.426580 -0.456070 -0.004790 19.599988 7.617647 4.207587 58.859807 1.440610 -7.706241 13.279759 14.721913 -0.027850 1.997315 -0.878530 -0.658880 0.541930 0.650890 -0.251000 
0.132580 17.891320 -1.706830 -5.354687 2.786371 -1.304540 -14.987707 12.983081 2.235844 1.459880 -0.488985 -6.667740 -2.105245 4.907578 13.314933 -0.894810 4.315433 3.292749 -0.385130 -0.692930 -0.396050 18.694932 -9.255840 4.876127 -1.412817 9.920853 -49.103051 3.513193 -11.400860 54.668445 -0.787230 -8.284028 1.615564 -0.206490 0.802640 0.010530 -4.476313 -2.505238 -8.155724 16.778416 -6.536175 13.709852 -7.156082 -3.836906 2.718323 2.588004 -2.293059 -7.703809 -7.958160 4.821988 43.784920 -3.882770 4.909100 2.957630 -25.764688 -8.329107 1.763598 -45.921108 -11.515339 -2.566247 -40.835960 -55.361697 17.715764 -4.197173 2.935896 0.517890 0.451090 -0.484710 -0.000130 19.995410 7.166824 4.065937 58.591853 1.138477 -7.815125 13.293288 15.037298 -0.028228 1.996143 -0.883934 -0.666210 0.546860 0.661100 -0.237990 
0.119100 17.862920 -1.670420 -4.948827 2.633941 -0.979265 -15.000402 13.080992 2.293448 1.140184 -0.518563 -6.964539 -2.068496 4.948406 13.823196 -0.886027 4.354866 3.293254 -0.416200 -0.726770 -0.425900 18.655666 -9.374744 4.702887 -1.071478 9.205930 -47.844770 3.155534 -10.343396 51.005767 -0.591562 -7.532203 1.867822 -0.219500 0.844600 0.006700 -4.405044 -2.563088 -8.055613 16.072027 -6.352627 13.225415 -6.794734 -3.882985 2.658846 2.397768 -2.400840 -7.484606 -8.087892 4.918752 42.746003 -3.708740 4.845150 3.588550 -25.720179 -7.731695 1.571683 -46.512537 -11.836583 -2.177487 -40.595090 -55.312523 17.651388 -4.230392 2.929959 0.491760 0.478890 -0.517160 0.002980 20.364956 6.587462 3.890774 58.376797 0.800042 -7.959269 13.263626 15.443458 -0.022220 1.989987 -0.882423 -0.679090 0.557820 0.677050 -0.226950 
